Patient4_TMGait_0pt7_02_right_31_GRF.mot
version=1
nRows=26
nColumns=19
inDegrees=no
endheader
time	F1x	F1y	F1z	M1x	M1y	M1z	F2x	F2y	F2z	M2x	M2y	M2z	EC1x	EC1y	EC1z	EC2x	EC2y	EC2z
34.83	24.5419	740.4275	52.8915	-271.1234	-42.9211	759.6261	5.6886	-11.5932	-9.3214	1.8076	2.1928	-18.3119	-0.0592	0.0182	-0.0073	-0.0462	0.0165	0.9585
34.8419	23.1442	736.5407	55.399	-270.1493	-46.23	750.2732	3.5999	-6.979	-6.0961	1.5039	1.3765	-11.3404	-0.0592	0.0182	-0.0073	-0.0462	0.0165	0.9585
34.8539	22.5491	732.2046	57.1422	-268.9591	-48.2896	739.9771	1.8682	-3.0005	-3.4509	1.2994	0.77159	-5.3655	-0.0592	0.0182	-0.0073	-0.0462	0.0165	0.9585
34.8658	22.8476	727.7725	58.0289	-267.6542	-48.9601	729.3816	0.5504	0.11358	-1.501	1.1898	0.37911	-0.71845	-0.0592	0.0182	-0.0073	-0.0462	0.0165	0.9585
34.8777	23.9574	723.5058	58.1597	-266.3198	-48.3964	718.9652	-0.35313	2.3292	-0.20091	1.1524	0.15234	2.5563	-0.0592	0.0182	-0.0073	-0.0462	0.0165	0.9585
34.8896	25.6961	719.533	57.7641	-264.9955	-46.9422	709.0029	-0.92962	3.7712	0.56018	1.1658	0.059403	4.6715	-0.0592	0.0182	-0.0073	-0.0462	0.0165	0.9585
34.9016	27.8483	715.8711	57.1044	-263.6844	-44.9913	699.5748	-1.2552	4.5752	0.92296	1.1986	0.058384	5.848	-0.0592	0.0182	-0.0073	-0.0462	0.0165	0.9585
34.9135	30.2218	712.4956	56.4153	-262.3786	-42.8945	690.6959	-1.4286	4.891	1.015	1.2218	0.12082	6.3315	-0.0592	0.0182	-0.0073	-0.0462	0.0165	0.9585
34.9254	32.6977	709.4183	55.8902	-261.0889	-40.9218	682.3795	-1.509	4.7831	0.94535	1.1919	0.21572	6.2332	-0.0592	0.0182	-0.0073	-0.0462	0.0165	0.9585
34.9374	35.2077	706.7252	55.6311	-259.8525	-39.2187	674.6754	-1.5625	4.2958	0.79243	1.0677	0.33297	5.6423	-0.0592	0.0182	-0.0073	-0.0462	0.0165	0.9585
34.9493	37.7722	704.5736	55.7002	-258.7297	-37.8494	667.6822	-1.5948	3.3875	0.61334	0.79837	0.4515	4.5141	-0.0592	0.0182	-0.0073	-0.0462	0.0165	0.9585
34.9612	40.4462	703.2118	56.093	-257.8106	-36.7937	661.5993	-1.6199	2.0101	0.43559	0.34249	0.56501	2.8	-0.0592	0.0182	-0.0073	-0.0462	0.0165	0.9585
34.9731	43.3261	702.9214	56.8052	-257.1946	-36.014	656.6449	-1.5905	0.1164	0.27857	-0.32699	0.64712	0.43351	-0.0592	0.0182	-0.0073	-0.0462	0.0165	0.9585
34.9851	46.5076	703.9818	57.8172	-256.9744	-35.4519	653.0701	-1.4731	-2.2804	0.14678	-1.2063	0.6724	-2.5576	-0.0592	0.0182	-0.0073	-0.0462	0.0165	0.9585
34.997	50.0826	706.5693	59.1462	-257.2024	-35.0859	651.0335	-1.1694	-5.027	0.060168	-2.2337	0.5832	-5.9911	-0.0592	0.0182	-0.0073	-0.0462	0.0165	0.9585
35.0089	54.0663	710.6809	60.7941	-257.8649	-34.905	650.5566	-0.59743	-7.7542	0.033401	-3.2621	0.3252	-9.4177	-0.0592	0.0182	-0.0073	-0.0462	0.0165	0.9585
35.0209	58.4195	716.0717	62.7912	-258.8617	-34.9437	651.4521	0.35687	-9.7724	0.095389	-4.018	-0.176	-12.001	-0.0592	0.0182	-0.0073	-0.0462	0.0165	0.9585
35.0328	62.9796	722.3196	65.1308	-260.0368	-35.239	653.4088	1.7942	-9.9605	0.27059	-4.0629	-0.9836	-12.3634	-0.0592	0.0182	-0.0073	-0.0462	0.0165	0.9585
35.0447	67.4904	728.8865	67.8017	-261.203	-35.8554	656.0237	3.7714	-6.7127	0.59955	-2.7693	-2.1602	-8.5356	-0.0592	0.0182	-0.0073	-0.0462	0.0165	0.9585
35.0566	71.5786	735.1747	70.7504	-262.1574	-36.8608	658.8637	6.2509	2.0662	1.1114	0.67699	-3.7157	2.0546	-0.0592	0.0182	-0.0073	-0.0462	0.0165	0.9585
35.0686	74.8518	740.4288	73.8463	-262.6529	-38.2691	661.343	9.0051	18.7942	1.8264	7.2186	-5.577	22.3835	-0.0592	0.0182	-0.0073	-0.0462	0.0165	0.9585
35.0805	76.9676	743.6762	76.8128	-262.3761	-39.9542	662.663	11.5472	45.9037	2.7193	17.7992	-7.5093	55.466	-0.0592	0.0182	-0.0073	-0.0462	0.0165	0.9585
35.0924	77.7353	743.6349	79.2759	-260.9191	-41.664	661.706	13.0074	85.1879	3.7127	33.1102	-9.0633	103.5609	-0.0592	0.0182	-0.0073	-0.0462	0.0165	0.9585
35.1044	77.1199	738.8286	80.7647	-257.8192	-43.0115	657.1394	12.0809	136.7966	4.6243	53.1982	-9.4947	166.9358	-0.0592	0.0182	-0.0073	-0.0462	0.0165	0.9585
35.1163	75.2663	727.8356	80.8084	-252.6495	-43.5525	647.6128	7.1094	198.0312	5.1268	77.0015	-7.7889	242.3995	-0.0592	0.0182	-0.0073	-0.0462	0.0165	0.9585
35.1282	72.4873	709.6415	79.0122	-245.1358	-42.8533	632.0811	-2.5646	263.052	4.7716	102.2225	-3.1871	322.9027	-0.0592	0.0182	-0.0073	-0.0462	0.0165	0.9585
